<svg xmlns="http://www.w3.org/2000/svg" xmlns:v="https://svgstorm.com"
viewBox = "0 0 256 256"
width="256"
height="256">
<g fill="None" fill-opacity="0.0" stroke="#000000" stroke-opacity="1.00" stroke-width="0.3"><path d="
M 0.00 256.00 
L 4.00 256.00
C 4.73 254.01 4.54 250.86 7.00 250.00
C 6.42 252.41 6.83 253.97 5.00 256.00
L 23.00 256.00
C 22.16 249.08 14.81 248.25 9.00 249.00
C 16.52 247.17 11.11 238.94 16.00 235.00
C 18.79 238.02 15.53 242.38 16.00 246.00
C 20.88 246.97 23.89 251.41 25.00 256.00
L 35.00 256.00
C 31.07 251.11 36.88 247.38 34.67 242.33 C 32.46 237.28 30.68 233.85 32.00 228.00
C 25.76 226.66 22.40 236.05 17.00 234.00
C 19.82 229.29 26.36 224.49 32.00 227.00
C 32.80 224.49 33.28 221.81 33.00 219.00
C 42.24 214.70 54.56 207.55 66.00 204.00
C 66.62 207.29 72.62 207.40 72.00 212.00
C 73.14 209.80 72.04 206.17 76.00 205.00
C 72.97 198.85 72.21 195.31 67.25 189.75 C 62.29 184.20 59.73 179.54 55.25 173.75 C 50.76 167.97 49.01 163.11 46.69 156.31 C 44.38 149.50 39.00 145.09 36.22 138.78 C 33.44 132.46 32.54 125.59 30.67 118.33 C 28.81 111.06 27.93 100.70 28.00 93.00 C 28.07 85.30 26.99 75.34 29.00 68.00 C 31.01 60.66 34.47 53.86 39.00 50.00
C 40.03 47.58 39.90 45.47 39.00 43.00
C 44.66 36.02 52.81 29.39 59.08 23.08 C 65.34 16.77 74.28 13.41 80.71 11.64 C 87.14 9.88 98.64 1.44 110.00 4.00
C 108.67 1.50 104.26 4.57 103.00 2.00
C 112.20 1.88 121.70 3.06 130.00 5.00
C 128.90 7.29 125.18 2.97 124.00 6.00
C 133.72 6.71 144.01 17.31 152.00 15.00
C 157.30 22.31 168.32 28.19 172.59 35.75 C 176.86 43.32 184.48 50.46 187.77 59.23 C 191.06 68.00 201.97 80.00 195.00 86.00
C 184.30 59.73 173.94 34.68 147.30 18.70 C 120.67 2.71 87.07 5.77 62.81 24.25 C 38.56 42.74 26.87 78.44 31.00 110.00
C 33.44 108.51 33.70 121.10 36.59 125.75 C 39.47 130.40 41.91 137.91 44.31 143.69 C 46.70 149.47 49.61 156.41 53.30 161.70 C 57.00 166.98 59.32 172.66 63.25 177.75 C 67.19 182.83 70.40 188.46 74.75 193.25 C 79.10 198.03 82.74 203.91 89.00 206.00
C 87.81 207.71 86.35 210.12 84.00 210.00
C 78.40 197.34 71.06 214.20 76.00 221.00
C 67.94 224.09 69.56 243.98 57.00 245.00
C 57.92 249.75 53.62 252.77 52.00 256.00
L 61.00 256.00
C 64.36 248.56 73.04 251.48 77.00 256.00
L 239.00 256.00
C 238.25 253.91 238.05 252.50 241.00 253.00
C 240.98 249.05 240.15 248.07 239.00 245.00
C 242.37 245.99 241.58 237.75 241.00 233.00
C 247.12 227.70 250.44 221.21 251.00 215.00
C 254.02 215.28 254.66 212.67 256.00 211.00
L 256.00 0.00
L 51.00 0.00
C 52.18 8.97 56.46 10.74 53.60 18.75 C 50.75 26.77 35.81 25.82 30.00 22.00
C 29.90 16.64 23.60 7.55 31.00 6.00
C 31.59 3.73 30.15 2.10 30.00 0.00
L 11.00 0.00
C 11.00 1.00 11.00 2.00 11.00 3.00
C 8.79 3.71 7.54 2.10 8.00 0.00
L 0.00 0.00
L 0.00 256.00
M 100.00 2.00 
C 96.51 1.96 92.65 4.08 90.00 1.00
C 93.17 1.61 97.65 -0.25 100.00 2.00
M 255.00 18.00 
C 249.40 20.33 241.31 22.43 236.00 22.00
C 241.85 19.87 249.01 15.13 255.00 18.00
M 243.00 29.00 
C 241.23 31.04 240.59 34.86 237.00 34.00
C 236.99 30.86 239.85 28.60 243.00 29.00
M 5.00 42.00 
C 1.96 47.36 -0.60 39.28 5.00 42.00
M 152.00 50.00 
C 161.05 51.01 172.61 61.95 170.07 72.07 C 167.53 82.19 158.17 91.24 146.00 91.00 C 133.82 90.76 124.63 79.45 127.78 68.78 C 130.93 58.11 141.00 48.77 152.00 50.00
M 76.00 98.00 
C 89.56 100.55 94.36 123.61 82.75 132.75 C 71.13 141.88 51.84 139.79 48.02 123.98 C 44.21 108.16 61.23 95.22 76.00 98.00
M 233.00 130.00 
C 236.75 135.93 229.10 134.95 233.00 130.00
M 161.00 131.00 
C 157.28 137.01 151.49 143.38 145.00 146.00
C 147.73 153.35 137.18 157.99 133.00 163.00
C 130.11 153.73 123.42 159.76 117.77 162.77 C 112.13 165.78 106.88 170.57 101.00 173.00
C 116.99 154.32 136.58 135.80 161.00 131.00
M 221.00 168.00 
C 215.11 169.05 220.99 162.11 221.00 168.00
M 248.00 201.00 
C 239.55 202.07 247.77 192.70 248.00 201.00
M 197.00 198.00 
C 194.72 202.57 191.30 197.25 197.00 198.00
M 193.00 207.00 
C 199.05 206.75 202.33 210.11 206.23 213.77 C 210.13 217.43 207.70 220.45 210.00 224.00
C 208.50 224.85 202.04 229.17 206.00 232.00
C 199.77 232.33 196.10 232.42 190.77 228.23 C 185.44 224.04 187.70 217.16 186.99 210.99 C 186.29 204.82 190.81 195.60 193.00 207.00 Z"/>
</g>
<g fill="None" fill-opacity="0.0" stroke="#FFFFFF" stroke-opacity="1.00" stroke-width="0.3"><path d="
M 11.00 0.00 
L 8.00 0.00
C 7.54 2.10 8.79 3.71 11.00 3.00
C 11.00 2.00 11.00 1.00 11.00 0.00 Z"/>
</g>
<g fill="None" fill-opacity="0.0" stroke="#FCFCFC" stroke-opacity="1.00" stroke-width="0.3"><path d="
M 51.00 0.00 
L 30.00 0.00
C 30.15 2.10 31.59 3.73 31.00 6.00
C 23.60 7.55 29.90 16.64 30.00 22.00
C 35.81 25.82 50.75 26.77 53.60 18.75 C 56.46 10.74 52.18 8.97 51.00 0.00 Z"/>
</g>
<g fill="None" fill-opacity="0.0" stroke="#FFFFFF" stroke-opacity="1.00" stroke-width="0.3"><path d="
M 100.00 2.00 
C 97.65 -0.25 93.17 1.61 90.00 1.00
C 92.65 4.08 96.51 1.96 100.00 2.00 Z"/>
</g>
<g fill="None" fill-opacity="0.0" stroke="#F7F7F7" stroke-opacity="1.00" stroke-width="0.3"><path d="
M 35.00 256.00 
L 38.00 256.00
C 35.03 242.40 26.85 214.68 49.00 214.00
C 44.94 219.63 48.44 227.64 48.98 233.02 C 49.51 238.41 46.86 247.29 56.00 244.00
C 56.03 250.27 50.18 252.96 47.00 256.00
L 52.00 256.00
C 53.62 252.77 57.92 249.75 57.00 245.00
C 69.56 243.98 67.94 224.09 76.00 221.00
C 71.06 214.20 78.40 197.34 84.00 210.00
C 86.35 210.12 87.81 207.71 89.00 206.00
C 82.74 203.91 79.10 198.03 74.75 193.25 C 70.40 188.46 67.19 182.83 63.25 177.75 C 59.32 172.66 57.00 166.98 53.30 161.70 C 49.61 156.41 46.70 149.47 44.31 143.69 C 41.91 137.91 39.47 130.40 36.59 125.75 C 33.70 121.10 33.44 108.51 31.00 110.00
C 26.87 78.44 38.56 42.74 62.81 24.25 C 87.07 5.77 120.67 2.71 147.30 18.70 C 173.94 34.68 184.30 59.73 195.00 86.00
C 201.97 80.00 191.06 68.00 187.77 59.23 C 184.48 50.46 176.86 43.32 172.59 35.75 C 168.32 28.19 157.30 22.31 152.00 15.00
C 144.01 17.31 133.72 6.71 124.00 6.00
C 125.18 2.97 128.90 7.29 130.00 5.00
C 121.70 3.06 112.20 1.88 103.00 2.00
C 104.26 4.57 108.67 1.50 110.00 4.00
C 98.64 1.44 87.14 9.88 80.71 11.64 C 74.28 13.41 65.34 16.77 59.08 23.08 C 52.81 29.39 44.66 36.02 39.00 43.00
C 39.90 45.47 40.03 47.58 39.00 50.00
C 34.47 53.86 31.01 60.66 29.00 68.00 C 26.99 75.34 28.07 85.30 28.00 93.00 C 27.93 100.70 28.81 111.06 30.67 118.33 C 32.54 125.59 33.44 132.46 36.22 138.78 C 39.00 145.09 44.38 149.50 46.69 156.31 C 49.01 163.11 50.76 167.97 55.25 173.75 C 59.73 179.54 62.29 184.20 67.25 189.75 C 72.21 195.31 72.97 198.85 76.00 205.00
C 72.04 206.17 73.14 209.80 72.00 212.00
C 72.62 207.40 66.62 207.29 66.00 204.00
C 54.56 207.55 42.24 214.70 33.00 219.00
C 33.28 221.81 32.80 224.49 32.00 227.00
C 26.36 224.49 19.82 229.29 17.00 234.00
C 22.40 236.05 25.76 226.66 32.00 228.00
C 30.68 233.85 32.46 237.28 34.67 242.33 C 36.88 247.38 31.07 251.11 35.00 256.00
M 70.00 227.00 
C 67.77 225.02 70.40 219.92 67.00 220.00
C 64.61 227.88 71.72 235.08 60.30 241.30 C 48.89 247.52 50.05 231.28 49.00 223.00 C 47.96 214.72 56.68 205.04 64.67 207.33 C 72.66 209.62 73.72 221.24 70.00 227.00 Z"/>
</g>
<g fill="None" fill-opacity="0.0" stroke="#FFFFFF" stroke-opacity="1.00" stroke-width="0.3"><path d="
M 255.00 18.00 
C 249.01 15.13 241.85 19.87 236.00 22.00
C 241.31 22.43 249.40 20.33 255.00 18.00 Z"/>
</g>
<g fill="None" fill-opacity="0.0" stroke="#FFFFFF" stroke-opacity="1.00" stroke-width="0.3"><path d="
M 243.00 29.00 
C 239.85 28.60 236.99 30.86 237.00 34.00
C 240.59 34.86 241.23 31.04 243.00 29.00 Z"/>
</g>
<g fill="None" fill-opacity="0.0" stroke="#FFFFFF" stroke-opacity="1.00" stroke-width="0.3"><path d="
M 5.00 42.00 
C -0.60 39.28 1.96 47.36 5.00 42.00 Z"/>
</g>
<g fill="None" fill-opacity="0.0" stroke="#FAFAFA" stroke-opacity="1.00" stroke-width="0.3"><path d="
M 152.00 50.00 
C 141.00 48.77 130.93 58.11 127.78 68.78 C 124.63 79.45 133.82 90.76 146.00 91.00 C 158.17 91.24 167.53 82.19 170.07 72.07 C 172.61 61.95 161.05 51.01 152.00 50.00 Z"/>
</g>
<g fill="None" fill-opacity="0.0" stroke="#FCFCFC" stroke-opacity="1.00" stroke-width="0.3"><path d="
M 76.00 98.00 
C 61.23 95.22 44.21 108.16 48.02 123.98 C 51.84 139.79 71.13 141.88 82.75 132.75 C 94.36 123.61 89.56 100.55 76.00 98.00
M 84.00 106.00 
C 82.07 104.74 80.09 103.00 79.00 101.00
C 81.33 101.14 83.94 103.61 84.00 106.00
M 88.00 114.00 
C 88.18 118.96 88.49 125.05 84.00 128.00
C 85.21 123.37 87.15 118.40 88.00 114.00
M 79.00 133.00 
C 77.34 135.52 74.01 136.91 71.00 137.00
C 73.14 135.17 76.11 133.59 79.00 133.00 Z"/>
</g>
<g fill="None" fill-opacity="0.0" stroke="#535353" stroke-opacity="1.00" stroke-width="0.3"><path d="
M 84.00 106.00 
C 83.94 103.61 81.33 101.14 79.00 101.00
C 80.09 103.00 82.07 104.74 84.00 106.00 Z"/>
</g>
<g fill="None" fill-opacity="0.0" stroke="#000000" stroke-opacity="1.00" stroke-width="0.3"><path d="
M 88.00 114.00 
C 87.15 118.40 85.21 123.37 84.00 128.00
C 88.49 125.05 88.18 118.96 88.00 114.00 Z"/>
</g>
<g fill="None" fill-opacity="0.0" stroke="#FFFFFF" stroke-opacity="1.00" stroke-width="0.3"><path d="
M 233.00 130.00 
C 229.10 134.95 236.75 135.93 233.00 130.00 Z"/>
</g>
<g fill="None" fill-opacity="0.0" stroke="#FFFFFF" stroke-opacity="1.00" stroke-width="0.3"><path d="
M 161.00 131.00 
C 136.58 135.80 116.99 154.32 101.00 173.00
C 106.88 170.57 112.13 165.78 117.77 162.77 C 123.42 159.76 130.11 153.73 133.00 163.00
C 137.18 157.99 147.73 153.35 145.00 146.00
C 151.49 143.38 157.28 137.01 161.00 131.00 Z"/>
</g>
<g fill="None" fill-opacity="0.0" stroke="#020202" stroke-opacity="1.00" stroke-width="0.3"><path d="
M 79.00 133.00 
C 76.11 133.59 73.14 135.17 71.00 137.00
C 74.01 136.91 77.34 135.52 79.00 133.00 Z"/>
</g>
<g fill="None" fill-opacity="0.0" stroke="#FFFFFF" stroke-opacity="1.00" stroke-width="0.3"><path d="
M 221.00 168.00 
C 220.99 162.11 215.11 169.05 221.00 168.00 Z"/>
</g>
<g fill="None" fill-opacity="0.0" stroke="#FFFFFF" stroke-opacity="1.00" stroke-width="0.3"><path d="
M 248.00 201.00 
C 247.77 192.70 239.55 202.07 248.00 201.00 Z"/>
</g>
<g fill="None" fill-opacity="0.0" stroke="#C8C8C8" stroke-opacity="1.00" stroke-width="0.3"><path d="
M 197.00 198.00 
C 191.30 197.25 194.72 202.57 197.00 198.00 Z"/>
</g>
<g fill="None" fill-opacity="0.0" stroke="#FEFEFE" stroke-opacity="1.00" stroke-width="0.3"><path d="
M 193.00 207.00 
C 190.81 195.60 186.29 204.82 186.99 210.99 C 187.70 217.16 185.44 224.04 190.77 228.23 C 196.10 232.42 199.77 232.33 206.00 232.00
C 202.04 229.17 208.50 224.85 210.00 224.00
C 207.70 220.45 210.13 217.43 206.23 213.77 C 202.33 210.11 199.05 206.75 193.00 207.00 Z"/>
</g>
<g fill="None" fill-opacity="0.0" stroke="#000000" stroke-opacity="1.00" stroke-width="0.3"><path d="
M 70.00 227.00 
C 73.72 221.24 72.66 209.62 64.67 207.33 C 56.68 205.04 47.96 214.72 49.00 223.00 C 50.05 231.28 48.89 247.52 60.30 241.30 C 71.72 235.08 64.61 227.88 67.00 220.00
C 70.40 219.92 67.77 225.02 70.00 227.00 Z"/>
</g>
<g fill="None" fill-opacity="0.0" stroke="#FFFFFF" stroke-opacity="1.00" stroke-width="0.3"><path d="
M 239.00 256.00 
L 256.00 256.00
L 256.00 211.00
C 254.66 212.67 254.02 215.28 251.00 215.00
C 250.44 221.21 247.12 227.70 241.00 233.00
C 241.58 237.75 242.37 245.99 239.00 245.00
C 240.15 248.07 240.98 249.05 241.00 253.00
C 238.05 252.50 238.25 253.91 239.00 256.00 Z"/>
</g>
<g fill="None" fill-opacity="0.0" stroke="#000000" stroke-opacity="1.00" stroke-width="0.3"><path d="
M 38.00 256.00 
L 47.00 256.00
C 50.18 252.96 56.03 250.27 56.00 244.00
C 46.86 247.29 49.51 238.41 48.98 233.02 C 48.44 227.64 44.94 219.63 49.00 214.00
C 26.85 214.68 35.03 242.40 38.00 256.00 Z"/>
</g>
<g fill="None" fill-opacity="0.0" stroke="#FFFFFF" stroke-opacity="1.00" stroke-width="0.3"><path d="
M 23.00 256.00 
L 25.00 256.00
C 23.89 251.41 20.88 246.97 16.00 246.00
C 15.53 242.38 18.79 238.02 16.00 235.00
C 11.11 238.94 16.52 247.17 9.00 249.00
C 14.81 248.25 22.16 249.08 23.00 256.00 Z"/>
</g>
<g fill="None" fill-opacity="0.0" stroke="#FFFFFF" stroke-opacity="1.00" stroke-width="0.3"><path d="
M 4.00 256.00 
L 5.00 256.00
C 6.83 253.97 6.42 252.41 7.00 250.00
C 4.54 250.86 4.73 254.01 4.00 256.00 Z"/>
</g>
<g fill="None" fill-opacity="0.0" stroke="#FFFFFF" stroke-opacity="1.00" stroke-width="0.3"><path d="
M 61.00 256.00 
L 77.00 256.00
C 73.04 251.48 64.36 248.56 61.00 256.00 Z"/>
</g>
<g fill="#000000" fill-opacity="1.00" stroke="None">
<path d="
M 0.00 256.00 
L 4.00 256.00
C 4.73 254.01 4.54 250.86 7.00 250.00
C 6.42 252.41 6.83 253.97 5.00 256.00
L 23.00 256.00
C 22.16 249.08 14.81 248.25 9.00 249.00
C 16.52 247.17 11.11 238.94 16.00 235.00
C 18.79 238.02 15.53 242.38 16.00 246.00
C 20.88 246.97 23.89 251.41 25.00 256.00
L 35.00 256.00
C 31.07 251.11 36.88 247.38 34.67 242.33 C 32.46 237.28 30.68 233.85 32.00 228.00
C 25.76 226.66 22.40 236.05 17.00 234.00
C 19.82 229.29 26.36 224.49 32.00 227.00
C 32.80 224.49 33.28 221.81 33.00 219.00
C 42.24 214.70 54.56 207.55 66.00 204.00
C 66.62 207.29 72.62 207.40 72.00 212.00
C 73.14 209.80 72.04 206.17 76.00 205.00
C 72.97 198.85 72.21 195.31 67.25 189.75 C 62.29 184.20 59.73 179.54 55.25 173.75 C 50.76 167.97 49.01 163.11 46.69 156.31 C 44.38 149.50 39.00 145.09 36.22 138.78 C 33.44 132.46 32.54 125.59 30.67 118.33 C 28.81 111.06 27.93 100.70 28.00 93.00 C 28.07 85.30 26.99 75.34 29.00 68.00 C 31.01 60.66 34.47 53.86 39.00 50.00
C 40.03 47.58 39.90 45.47 39.00 43.00
C 44.66 36.02 52.81 29.39 59.08 23.08 C 65.34 16.77 74.28 13.41 80.71 11.64 C 87.14 9.88 98.64 1.44 110.00 4.00
C 108.67 1.50 104.26 4.57 103.00 2.00
C 112.20 1.88 121.70 3.06 130.00 5.00
C 128.90 7.29 125.18 2.97 124.00 6.00
C 133.72 6.71 144.01 17.31 152.00 15.00
C 157.30 22.31 168.32 28.19 172.59 35.75 C 176.86 43.32 184.48 50.46 187.77 59.23 C 191.06 68.00 201.97 80.00 195.00 86.00
C 184.30 59.73 173.94 34.68 147.30 18.70 C 120.67 2.71 87.07 5.77 62.81 24.25 C 38.56 42.74 26.87 78.44 31.00 110.00
C 33.44 108.51 33.70 121.10 36.59 125.75 C 39.47 130.40 41.91 137.91 44.31 143.69 C 46.70 149.47 49.61 156.41 53.30 161.70 C 57.00 166.98 59.32 172.66 63.25 177.75 C 67.19 182.83 70.40 188.46 74.75 193.25 C 79.10 198.03 82.74 203.91 89.00 206.00
C 87.81 207.71 86.35 210.12 84.00 210.00
C 78.40 197.34 71.06 214.20 76.00 221.00
C 67.94 224.09 69.56 243.98 57.00 245.00
C 57.92 249.75 53.62 252.77 52.00 256.00
L 61.00 256.00
C 64.36 248.56 73.04 251.48 77.00 256.00
L 239.00 256.00
C 238.25 253.91 238.05 252.50 241.00 253.00
C 240.98 249.05 240.15 248.07 239.00 245.00
C 242.37 245.99 241.58 237.75 241.00 233.00
C 247.12 227.70 250.44 221.21 251.00 215.00
C 254.02 215.28 254.66 212.67 256.00 211.00
L 256.00 0.00
L 51.00 0.00
C 52.18 8.97 56.46 10.74 53.60 18.75 C 50.75 26.77 35.81 25.82 30.00 22.00
C 29.90 16.64 23.60 7.55 31.00 6.00
C 31.59 3.73 30.15 2.10 30.00 0.00
L 11.00 0.00
C 11.00 1.00 11.00 2.00 11.00 3.00
C 8.79 3.71 7.54 2.10 8.00 0.00
L 0.00 0.00
L 0.00 256.00
M 100.00 2.00 
C 96.51 1.96 92.65 4.08 90.00 1.00
C 93.17 1.61 97.65 -0.25 100.00 2.00
M 255.00 18.00 
C 249.40 20.33 241.31 22.43 236.00 22.00
C 241.85 19.87 249.01 15.13 255.00 18.00
M 243.00 29.00 
C 241.23 31.04 240.59 34.86 237.00 34.00
C 236.99 30.86 239.85 28.60 243.00 29.00
M 5.00 42.00 
C 1.96 47.36 -0.60 39.28 5.00 42.00
M 152.00 50.00 
C 161.05 51.01 172.61 61.95 170.07 72.07 C 167.53 82.19 158.17 91.24 146.00 91.00 C 133.82 90.76 124.63 79.45 127.78 68.78 C 130.93 58.11 141.00 48.77 152.00 50.00
M 76.00 98.00 
C 89.56 100.55 94.36 123.61 82.75 132.75 C 71.13 141.88 51.84 139.79 48.02 123.98 C 44.21 108.16 61.23 95.22 76.00 98.00
M 233.00 130.00 
C 236.75 135.93 229.10 134.95 233.00 130.00
M 161.00 131.00 
C 157.28 137.01 151.49 143.38 145.00 146.00
C 147.73 153.35 137.18 157.99 133.00 163.00
C 130.11 153.73 123.42 159.76 117.77 162.77 C 112.13 165.78 106.88 170.57 101.00 173.00
C 116.99 154.32 136.58 135.80 161.00 131.00
M 221.00 168.00 
C 215.11 169.05 220.99 162.11 221.00 168.00
M 248.00 201.00 
C 239.55 202.07 247.77 192.70 248.00 201.00
M 197.00 198.00 
C 194.72 202.57 191.30 197.25 197.00 198.00
M 193.00 207.00 
C 199.05 206.75 202.33 210.11 206.23 213.77 C 210.13 217.43 207.70 220.45 210.00 224.00
C 208.50 224.85 202.04 229.17 206.00 232.00
C 199.77 232.33 196.10 232.42 190.77 228.23 C 185.44 224.04 187.70 217.16 186.99 210.99 C 186.29 204.82 190.81 195.60 193.00 207.00 Z"/>
</g>
<g fill="#FFFFFF" fill-opacity="1.00" stroke="None">
<path d="
M 11.00 0.00 
L 8.00 0.00
C 7.54 2.10 8.79 3.71 11.00 3.00
C 11.00 2.00 11.00 1.00 11.00 0.00 Z"/>
</g>
<g fill="#FCFCFC" fill-opacity="1.00" stroke="None">
<path d="
M 51.00 0.00 
L 30.00 0.00
C 30.15 2.10 31.59 3.73 31.00 6.00
C 23.60 7.55 29.90 16.64 30.00 22.00
C 35.81 25.82 50.75 26.77 53.60 18.75 C 56.46 10.74 52.18 8.97 51.00 0.00 Z"/>
</g>
<g fill="#FFFFFF" fill-opacity="1.00" stroke="None">
<path d="
M 100.00 2.00 
C 97.65 -0.25 93.17 1.61 90.00 1.00
C 92.65 4.08 96.51 1.96 100.00 2.00 Z"/>
</g>
<g fill="#F7F7F7" fill-opacity="1.00" stroke="None">
<path d="
M 35.00 256.00 
L 38.00 256.00
C 35.03 242.40 26.85 214.68 49.00 214.00
C 44.94 219.63 48.44 227.64 48.98 233.02 C 49.51 238.41 46.86 247.29 56.00 244.00
C 56.03 250.27 50.18 252.96 47.00 256.00
L 52.00 256.00
C 53.62 252.77 57.92 249.75 57.00 245.00
C 69.56 243.98 67.94 224.09 76.00 221.00
C 71.06 214.20 78.40 197.34 84.00 210.00
C 86.35 210.12 87.81 207.71 89.00 206.00
C 82.74 203.91 79.10 198.03 74.75 193.25 C 70.40 188.46 67.19 182.83 63.25 177.75 C 59.32 172.66 57.00 166.98 53.30 161.70 C 49.61 156.41 46.70 149.47 44.31 143.69 C 41.91 137.91 39.47 130.40 36.59 125.75 C 33.70 121.10 33.44 108.51 31.00 110.00
C 26.87 78.44 38.56 42.74 62.81 24.25 C 87.07 5.77 120.67 2.71 147.30 18.70 C 173.94 34.68 184.30 59.73 195.00 86.00
C 201.97 80.00 191.06 68.00 187.77 59.23 C 184.48 50.46 176.86 43.32 172.59 35.75 C 168.32 28.19 157.30 22.31 152.00 15.00
C 144.01 17.31 133.72 6.71 124.00 6.00
C 125.18 2.97 128.90 7.29 130.00 5.00
C 121.70 3.06 112.20 1.88 103.00 2.00
C 104.26 4.57 108.67 1.50 110.00 4.00
C 98.64 1.44 87.14 9.88 80.71 11.64 C 74.28 13.41 65.34 16.77 59.08 23.08 C 52.81 29.39 44.66 36.02 39.00 43.00
C 39.90 45.47 40.03 47.58 39.00 50.00
C 34.47 53.86 31.01 60.66 29.00 68.00 C 26.99 75.34 28.07 85.30 28.00 93.00 C 27.93 100.70 28.81 111.06 30.67 118.33 C 32.54 125.59 33.44 132.46 36.22 138.78 C 39.00 145.09 44.38 149.50 46.69 156.31 C 49.01 163.11 50.76 167.97 55.25 173.75 C 59.73 179.54 62.29 184.20 67.25 189.75 C 72.21 195.31 72.97 198.85 76.00 205.00
C 72.04 206.17 73.14 209.80 72.00 212.00
C 72.62 207.40 66.62 207.29 66.00 204.00
C 54.56 207.55 42.24 214.70 33.00 219.00
C 33.28 221.81 32.80 224.49 32.00 227.00
C 26.36 224.49 19.82 229.29 17.00 234.00
C 22.40 236.05 25.76 226.66 32.00 228.00
C 30.68 233.85 32.46 237.28 34.67 242.33 C 36.88 247.38 31.07 251.11 35.00 256.00
M 70.00 227.00 
C 67.77 225.02 70.40 219.92 67.00 220.00
C 64.61 227.88 71.72 235.08 60.30 241.30 C 48.89 247.52 50.05 231.28 49.00 223.00 C 47.96 214.72 56.68 205.04 64.67 207.33 C 72.66 209.62 73.72 221.24 70.00 227.00 Z"/>
</g>
<g fill="#FFFFFF" fill-opacity="1.00" stroke="None">
<path d="
M 255.00 18.00 
C 249.01 15.13 241.85 19.87 236.00 22.00
C 241.31 22.43 249.40 20.33 255.00 18.00 Z"/>
</g>
<g fill="#FFFFFF" fill-opacity="1.00" stroke="None">
<path d="
M 243.00 29.00 
C 239.85 28.60 236.99 30.86 237.00 34.00
C 240.59 34.86 241.23 31.04 243.00 29.00 Z"/>
</g>
<g fill="#FFFFFF" fill-opacity="1.00" stroke="None">
<path d="
M 5.00 42.00 
C -0.60 39.28 1.96 47.36 5.00 42.00 Z"/>
</g>
<g fill="#FAFAFA" fill-opacity="1.00" stroke="None">
<path d="
M 152.00 50.00 
C 141.00 48.77 130.93 58.11 127.78 68.78 C 124.63 79.45 133.82 90.76 146.00 91.00 C 158.17 91.24 167.53 82.19 170.07 72.07 C 172.61 61.95 161.05 51.01 152.00 50.00 Z"/>
</g>
<g fill="#FCFCFC" fill-opacity="1.00" stroke="None">
<path d="
M 76.00 98.00 
C 61.23 95.22 44.21 108.16 48.02 123.98 C 51.84 139.79 71.13 141.88 82.75 132.75 C 94.36 123.61 89.56 100.55 76.00 98.00
M 84.00 106.00 
C 82.07 104.74 80.09 103.00 79.00 101.00
C 81.33 101.14 83.94 103.61 84.00 106.00
M 88.00 114.00 
C 88.18 118.96 88.49 125.05 84.00 128.00
C 85.21 123.37 87.15 118.40 88.00 114.00
M 79.00 133.00 
C 77.34 135.52 74.01 136.91 71.00 137.00
C 73.14 135.17 76.11 133.59 79.00 133.00 Z"/>
</g>
<g fill="#535353" fill-opacity="1.00" stroke="None">
<path d="
M 84.00 106.00 
C 83.94 103.61 81.33 101.14 79.00 101.00
C 80.09 103.00 82.07 104.74 84.00 106.00 Z"/>
</g>
<g fill="#000000" fill-opacity="1.00" stroke="None">
<path d="
M 88.00 114.00 
C 87.15 118.40 85.21 123.37 84.00 128.00
C 88.49 125.05 88.18 118.96 88.00 114.00 Z"/>
</g>
<g fill="#FFFFFF" fill-opacity="1.00" stroke="None">
<path d="
M 233.00 130.00 
C 229.10 134.95 236.75 135.93 233.00 130.00 Z"/>
</g>
<g fill="#FFFFFF" fill-opacity="1.00" stroke="None">
<path d="
M 161.00 131.00 
C 136.58 135.80 116.99 154.32 101.00 173.00
C 106.88 170.57 112.13 165.78 117.77 162.77 C 123.42 159.76 130.11 153.73 133.00 163.00
C 137.18 157.99 147.73 153.35 145.00 146.00
C 151.49 143.38 157.28 137.01 161.00 131.00 Z"/>
</g>
<g fill="#020202" fill-opacity="1.00" stroke="None">
<path d="
M 79.00 133.00 
C 76.11 133.59 73.14 135.17 71.00 137.00
C 74.01 136.91 77.34 135.52 79.00 133.00 Z"/>
</g>
<g fill="#FFFFFF" fill-opacity="1.00" stroke="None">
<path d="
M 221.00 168.00 
C 220.99 162.11 215.11 169.05 221.00 168.00 Z"/>
</g>
<g fill="#FFFFFF" fill-opacity="1.00" stroke="None">
<path d="
M 248.00 201.00 
C 247.77 192.70 239.55 202.07 248.00 201.00 Z"/>
</g>
<g fill="#C8C8C8" fill-opacity="1.00" stroke="None">
<path d="
M 197.00 198.00 
C 191.30 197.25 194.72 202.57 197.00 198.00 Z"/>
</g>
<g fill="#FEFEFE" fill-opacity="1.00" stroke="None">
<path d="
M 193.00 207.00 
C 190.81 195.60 186.29 204.82 186.99 210.99 C 187.70 217.16 185.44 224.04 190.77 228.23 C 196.10 232.42 199.77 232.33 206.00 232.00
C 202.04 229.17 208.50 224.85 210.00 224.00
C 207.70 220.45 210.13 217.43 206.23 213.77 C 202.33 210.11 199.05 206.75 193.00 207.00 Z"/>
</g>
<g fill="#000000" fill-opacity="1.00" stroke="None">
<path d="
M 70.00 227.00 
C 73.72 221.24 72.66 209.62 64.67 207.33 C 56.68 205.04 47.96 214.72 49.00 223.00 C 50.05 231.28 48.89 247.52 60.30 241.30 C 71.72 235.08 64.61 227.88 67.00 220.00
C 70.40 219.92 67.77 225.02 70.00 227.00 Z"/>
</g>
<g fill="#FFFFFF" fill-opacity="1.00" stroke="None">
<path d="
M 239.00 256.00 
L 256.00 256.00
L 256.00 211.00
C 254.66 212.67 254.02 215.28 251.00 215.00
C 250.44 221.21 247.12 227.70 241.00 233.00
C 241.58 237.75 242.37 245.99 239.00 245.00
C 240.15 248.07 240.98 249.05 241.00 253.00
C 238.05 252.50 238.25 253.91 239.00 256.00 Z"/>
</g>
<g fill="#000000" fill-opacity="1.00" stroke="None">
<path d="
M 38.00 256.00 
L 47.00 256.00
C 50.18 252.96 56.03 250.27 56.00 244.00
C 46.86 247.29 49.51 238.41 48.98 233.02 C 48.44 227.64 44.94 219.63 49.00 214.00
C 26.85 214.68 35.03 242.40 38.00 256.00 Z"/>
</g>
<g fill="#FFFFFF" fill-opacity="1.00" stroke="None">
<path d="
M 23.00 256.00 
L 25.00 256.00
C 23.89 251.41 20.88 246.97 16.00 246.00
C 15.53 242.38 18.79 238.02 16.00 235.00
C 11.11 238.94 16.52 247.17 9.00 249.00
C 14.81 248.25 22.16 249.08 23.00 256.00 Z"/>
</g>
<g fill="#FFFFFF" fill-opacity="1.00" stroke="None">
<path d="
M 4.00 256.00 
L 5.00 256.00
C 6.83 253.97 6.42 252.41 7.00 250.00
C 4.54 250.86 4.73 254.01 4.00 256.00 Z"/>
</g>
<g fill="#FFFFFF" fill-opacity="1.00" stroke="None">
<path d="
M 61.00 256.00 
L 77.00 256.00
C 73.04 251.48 64.36 248.56 61.00 256.00 Z"/>
</g>
</svg>